<svg width="2000px" height="2042px"
 viewBox="0.00 0.00 383.21 391.02" xmlns="http://www.w3.org/2000/svg" xmlns:xlink="http://www.w3.org/1999/xlink">
<g id="graph0" class="graph" transform="scale(1.0 1.0) rotate(0) translate(4 387.02)">
<title>ContextMapGraph</title>
<polygon fill="white" stroke="transparent" points="-4,4 -4,-387.02 379.21,-387.02 379.21,4 -4,4"/>
<!-- OrderProcessingContext -->
<g id="node1" class="node">
<title>OrderProcessingContext</title>
<polygon fill="none" stroke="black" stroke-width="2" points="99.43,-298.37 108.8,-296.85 118.35,-295.44 128.05,-294.15 137.86,-292.98 147.74,-291.94 157.66,-291.04 167.58,-290.27 177.46,-289.65 187.27,-289.17 196.98,-288.84 206.55,-288.66 215.95,-288.64 225.16,-288.76 234.15,-289.03 242.89,-289.46 251.37,-290.04 259.56,-290.76 267.44,-291.63 275,-292.64 282.22,-293.78 289.08,-295.06 295.59,-296.47 301.73,-298 307.49,-299.64 312.86,-301.39 317.86,-303.25 322.46,-305.2 326.68,-307.24 330.51,-309.36 333.95,-311.55 337.01,-313.8 339.69,-316.1 342,-318.45 343.94,-320.84 345.51,-323.26 346.73,-325.69 347.59,-328.14 348.1,-330.59 348.28,-333.04 348.11,-335.47 347.62,-337.88 346.8,-340.27 345.67,-342.61 344.21,-344.92 342.45,-347.18 340.38,-349.38 338,-351.53 335.32,-353.61 332.34,-355.62 329.06,-357.56 325.49,-359.42 321.62,-361.19 317.46,-362.89 313.01,-364.5 308.26,-366.01 303.23,-367.44 297.91,-368.77 292.31,-370.01 286.42,-371.16 280.26,-372.21 273.83,-373.16 267.13,-374.02 260.17,-374.77 252.96,-375.44 245.5,-376 237.81,-376.47 229.9,-376.85 221.79,-377.13 213.48,-377.31 204.99,-377.4 196.35,-377.4 187.57,-377.31 178.67,-377.12 169.68,-376.85 160.63,-376.48 151.53,-376.03 142.41,-375.49 133.31,-374.85 124.25,-374.14 115.27,-373.33 106.39,-372.45 97.66,-371.47 89.09,-370.42 80.73,-369.28 72.62,-368.06 64.77,-366.76 57.23,-365.38 50.03,-363.92 43.2,-362.38 36.77,-360.78 30.78,-359.1 25.24,-357.35 20.19,-355.53 15.66,-353.65 11.66,-351.7 8.21,-349.7 5.34,-347.64 3.06,-345.53 1.39,-343.38 0.33,-341.19 -0.1,-338.96 0.09,-336.69 0.91,-334.41 2.37,-332.1 4.44,-329.78 7.14,-327.45 10.44,-325.13 14.34,-322.81 18.82,-320.51 23.87,-318.23 29.45,-315.98 35.55,-313.77 42.14,-311.6 49.19,-309.49 56.67,-307.44 64.56,-305.45 72.81,-303.55 81.4,-301.73 90.28,-300 99.43,-298.37"/>
<text text-anchor="middle" x="187.6" y="-331.93" font-family="sans-serif" font-size="16.00">OrderProcessingContext</text>
</g>
<!-- ShoppingCartContext -->
<g id="node2" class="node">
<title>ShoppingCartContext</title>
<polygon fill="none" stroke="black" stroke-width="2" points="94.94,-228.16 86.71,-226.48 78.79,-224.71 71.2,-222.86 63.99,-220.94 57.18,-218.95 50.81,-216.91 44.89,-214.81 39.44,-212.66 34.51,-210.48 30.09,-208.27 26.22,-206.03 22.9,-203.78 20.15,-201.51 17.97,-199.24 16.37,-196.98 15.35,-194.72 14.92,-192.48 15.07,-190.25 15.8,-188.05 17.09,-185.88 18.94,-183.75 21.34,-181.65 24.26,-179.6 27.7,-177.59 31.62,-175.63 36.02,-173.73 40.86,-171.89 46.12,-170.1 51.77,-168.38 57.8,-166.73 64.15,-165.15 70.82,-163.63 77.77,-162.19 84.96,-160.82 92.37,-159.53 99.97,-158.32 107.73,-157.19 115.62,-156.15 123.61,-155.18 131.67,-154.31 139.77,-153.52 147.9,-152.81 156.02,-152.2 164.11,-151.68 172.15,-151.26 180.11,-150.92 187.99,-150.69 195.75,-150.55 203.39,-150.51 210.9,-150.57 218.24,-150.73 225.42,-150.99 232.43,-151.35 239.24,-151.82 245.87,-152.39 252.29,-153.06 258.51,-153.84 264.51,-154.72 270.3,-155.71 275.86,-156.8 281.2,-157.99 286.32,-159.28 291.2,-160.67 295.86,-162.16 300.28,-163.74 304.47,-165.41 308.41,-167.18 312.12,-169.02 315.58,-170.96 318.79,-172.96 321.76,-175.05 324.46,-177.19 326.91,-179.41 329.09,-181.67 331,-183.99 332.62,-186.36 333.97,-188.75 335.02,-191.18 335.77,-193.63 336.21,-196.1 336.33,-198.57 336.13,-201.04 335.59,-203.5 334.71,-205.94 333.48,-208.36 331.89,-210.74 329.94,-213.07 327.61,-215.36 324.91,-217.58 321.82,-219.73 318.35,-221.81 314.49,-223.8 310.24,-225.7 305.6,-227.5 300.58,-229.2 295.17,-230.78 289.38,-232.25 283.23,-233.59 276.72,-234.81 269.86,-235.89 262.66,-236.83 255.15,-237.64 247.34,-238.3 239.25,-238.82 230.91,-239.2 222.33,-239.42 213.54,-239.51 204.57,-239.44 195.46,-239.23 186.22,-238.87 176.9,-238.38 167.53,-237.74 158.14,-236.97 148.76,-236.07 139.44,-235.04 130.21,-233.89 121.11,-232.62 112.17,-231.24 103.44,-229.75 94.94,-228.16"/>
<text text-anchor="middle" x="187.6" y="-189.06" font-family="sans-serif" font-size="16.00">ShoppingCartContext</text>
</g>
<!-- OrderProcessingContext&#45;&gt;ShoppingCartContext -->
<g id="edge1" class="edge">
<title>OrderProcessingContext&#45;&gt;ShoppingCartContext</title>
<path fill="none" stroke="black" stroke-width="2" d="M187.6,-288.99C187.6,-273.08 187.6,-255.25 187.6,-239.36"/>
<text text-anchor="middle" x="263.1" y="-260.83" font-family="sans-serif" font-size="12.00"> &#160;&#160;&#160;&#160;&#160;&#160;&#160;&#160;&#160;&#160;&#160;&#160;&#160;&#160;&#160;&#160;&#160;&#160;&#160;&#160;&#160;&#160;&#160;&#160;&#160;&#160;&#160;&#160;&#160;&#160;&#160;&#160;&#160;&#160;&#160;&#160;&#160;&#160;&#160;</text>
<polygon fill="white" stroke="transparent" points="180.6,-230.36 180.6,-247.36 194.6,-247.36 194.6,-230.36 180.6,-230.36"/>
<text text-anchor="start" x="182.6" y="-235.76" font-family="sans-serif" font-size="12.00">D</text>
<polygon fill="white" stroke="transparent" points="152.6,-278.99 152.6,-297.99 168.6,-297.99 168.6,-278.99 152.6,-278.99"/>
<polyline fill="none" stroke="black" points="168.6,-278.99 168.6,-297.99 "/>
<text text-anchor="start" x="155.6" y="-285.39" font-family="sans-serif" font-size="12.00">U</text>
<polygon fill="white" stroke="transparent" points="168.6,-278.99 168.6,-297.99 223.6,-297.99 223.6,-278.99 168.6,-278.99"/>
<polygon fill="none" stroke="black" points="168.6,-278.99 168.6,-297.99 223.6,-297.99 223.6,-278.99 168.6,-278.99"/>
<text text-anchor="start" x="171.6" y="-285.39" font-family="sans-serif" font-size="12.00">OHS, PL</text>
</g>
<!-- ProductCatalogContext -->
<g id="node3" class="node">
<title>ProductCatalogContext</title>
<polygon fill="none" stroke="black" stroke-width="2" points="29.27,-58.82 26.66,-56.03 24.5,-53.23 22.81,-50.43 21.59,-47.64 20.85,-44.87 20.6,-42.13 20.83,-39.44 21.56,-36.81 22.79,-34.23 24.5,-31.73 26.71,-29.31 29.4,-26.97 32.57,-24.73 36.21,-22.6 40.32,-20.57 44.87,-18.65 49.86,-16.85 55.27,-15.17 61.08,-13.62 67.28,-12.19 73.84,-10.89 80.75,-9.72 87.98,-8.67 95.51,-7.76 103.31,-6.98 111.36,-6.32 119.63,-5.79 128.09,-5.38 136.72,-5.09 145.49,-4.92 154.36,-4.87 163.31,-4.92 172.32,-5.08 181.34,-5.35 190.36,-5.71 199.34,-6.17 208.25,-6.72 217.08,-7.35 225.78,-8.07 234.34,-8.87 242.72,-9.74 250.91,-10.68 258.89,-11.7 266.62,-12.77 274.08,-13.91 281.27,-15.11 288.15,-16.37 294.72,-17.68 300.95,-19.04 306.83,-20.45 312.35,-21.92 317.49,-23.43 322.25,-24.98 326.62,-26.58 330.58,-28.23 334.13,-29.92 337.28,-31.65 340,-33.42 342.3,-35.23 344.18,-37.08 345.64,-38.97 346.68,-40.89 347.3,-42.85 347.5,-44.84 347.29,-46.86 346.67,-48.91 345.65,-50.98 344.23,-53.07 342.42,-55.19 340.23,-57.31 337.66,-59.45 334.72,-61.59 331.43,-63.73 327.78,-65.87 323.8,-68 319.5,-70.11 314.87,-72.19 309.94,-74.25 304.71,-76.26 299.21,-78.24 293.43,-80.15 287.4,-82.01 281.12,-83.8 274.6,-85.51 267.88,-87.14 260.95,-88.68 253.82,-90.11 246.53,-91.44 239.08,-92.65 231.48,-93.74 223.75,-94.7 215.92,-95.52 207.99,-96.21 199.98,-96.74 191.91,-97.13 183.81,-97.35 175.68,-97.42 167.54,-97.33 159.43,-97.07 151.35,-96.65 143.33,-96.07 135.38,-95.31 127.53,-94.4 119.8,-93.32 112.21,-92.09 104.78,-90.69 97.53,-89.15 90.49,-87.47 83.67,-85.64 77.1,-83.69 70.79,-81.61 64.78,-79.41 59.07,-77.11 53.69,-74.7 48.65,-72.21 43.98,-69.65 39.69,-67.01 35.8,-64.32 32.32,-61.59 29.27,-58.82"/>
<text text-anchor="middle" x="187.6" y="-44.84" font-family="sans-serif" font-size="16.00">ProductCatalogContext</text>
</g>
<!-- ShoppingCartContext&#45;&gt;ProductCatalogContext -->
<g id="edge2" class="edge">
<title>ShoppingCartContext&#45;&gt;ProductCatalogContext</title>
<path fill="none" stroke="black" stroke-width="2" d="M187.6,-150.34C187.6,-133.78 187.6,-114.61 187.6,-97.47"/>
<text text-anchor="middle" x="229.6" y="-118.68" font-family="sans-serif" font-size="12.00">Shared Kernel</text>
</g>
</g>
</svg>
