<svg width="2000px" height="714px"
 viewBox="0.00 0.00 1117.34 398.55" xmlns="http://www.w3.org/2000/svg" xmlns:xlink="http://www.w3.org/1999/xlink">
<g id="graph0" class="graph" transform="scale(1.0 1.0) rotate(0) translate(4 394.55)">
<title>ContextMapGraph</title>
<polygon fill="white" stroke="transparent" points="-4,4 -4,-394.55 1113.34,-394.55 1113.34,4 -4,4"/>
<!-- CatalogoProductos -->
<g id="node1" class="node">
<title>CatalogoProductos</title>
<polygon fill="none" stroke="black" stroke-width="2" points="417.91,-352.79 415.54,-350.01 413.55,-347.22 411.96,-344.42 410.77,-341.64 409.99,-338.87 409.62,-336.14 409.68,-333.44 410.15,-330.8 411.05,-328.22 412.37,-325.7 414.12,-323.27 416.28,-320.92 418.85,-318.66 421.83,-316.51 425.2,-314.46 428.96,-312.52 433.1,-310.69 437.61,-308.99 442.46,-307.4 447.65,-305.94 453.16,-304.61 458.96,-303.41 465.05,-302.33 471.4,-301.38 477.98,-300.56 484.79,-299.86 491.78,-299.29 498.95,-298.84 506.27,-298.51 513.71,-298.3 521.25,-298.2 528.86,-298.22 536.52,-298.34 544.2,-298.56 551.88,-298.88 559.54,-299.29 567.15,-299.8 574.68,-300.39 582.11,-301.07 589.43,-301.83 596.6,-302.66 603.62,-303.57 610.44,-304.54 617.07,-305.59 623.48,-306.69 629.65,-307.86 635.57,-309.08 641.22,-310.36 646.59,-311.7 651.67,-313.08 656.44,-314.52 660.89,-316.01 665.02,-317.54 668.82,-319.13 672.27,-320.75 675.39,-322.43 678.15,-324.14 680.56,-325.9 682.62,-327.71 684.32,-329.55 685.66,-331.43 686.65,-333.35 687.28,-335.31 687.57,-337.3 687.5,-339.32 687.08,-341.37 686.33,-343.45 685.23,-345.55 683.81,-347.68 682.06,-349.81 680,-351.97 677.62,-354.12 674.94,-356.28 671.96,-358.44 668.69,-360.59 665.15,-362.72 661.33,-364.83 657.26,-366.91 652.93,-368.95 648.35,-370.95 643.55,-372.9 638.52,-374.78 633.29,-376.61 627.85,-378.35 622.22,-380.01 616.41,-381.58 610.44,-383.05 604.31,-384.41 598.05,-385.66 591.65,-386.79 585.14,-387.78 578.52,-388.65 571.82,-389.37 565.05,-389.94 558.21,-390.36 551.34,-390.63 544.43,-390.74 537.52,-390.68 530.61,-390.47 523.72,-390.08 516.87,-389.53 510.07,-388.82 503.35,-387.94 496.73,-386.9 490.21,-385.7 483.82,-384.34 477.58,-382.83 471.5,-381.18 465.61,-379.38 459.91,-377.46 454.44,-375.4 449.21,-373.23 444.23,-370.95 439.53,-368.58 435.11,-366.11 431,-363.56 427.21,-360.95 423.75,-358.27 420.65,-355.55 417.91,-352.79"/>
<text text-anchor="middle" x="551.9" y="-338.06" font-family="sans-serif" font-size="16.00">CatalogoProductos</text>
</g>
<!-- GestionInventario -->
<g id="node2" class="node">
<title>GestionInventario</title>
<polygon fill="none" stroke="black" stroke-width="2" points="157.93,-178.49 161.16,-175.82 164.71,-173.22 168.57,-170.69 172.72,-168.25 177.15,-165.9 181.84,-163.65 186.78,-161.52 191.95,-159.5 197.34,-157.62 202.92,-155.88 208.69,-154.27 214.62,-152.82 220.7,-151.51 226.91,-150.37 233.24,-149.38 239.66,-148.55 246.16,-147.89 252.73,-147.4 259.34,-147.07 265.99,-146.9 272.65,-146.89 279.31,-147.04 285.95,-147.35 292.55,-147.81 299.11,-148.41 305.61,-149.16 312.04,-150.04 318.37,-151.06 324.59,-152.19 330.7,-153.45 336.68,-154.81 342.52,-156.28 348.19,-157.83 353.7,-159.48 359.03,-161.2 364.16,-163 369.09,-164.86 373.81,-166.77 378.29,-168.73 382.55,-170.73 386.55,-172.77 390.3,-174.83 393.78,-176.91 396.98,-179 399.91,-181.11 402.53,-183.22 404.86,-185.32 406.88,-187.42 408.59,-189.51 409.97,-191.58 411.03,-193.64 411.75,-195.67 412.13,-197.68 412.18,-199.67 411.88,-201.63 411.23,-203.55 410.24,-205.45 408.89,-207.31 407.2,-209.14 405.16,-210.93 402.77,-212.68 400.04,-214.4 396.97,-216.07 393.57,-217.71 389.84,-219.31 385.79,-220.86 381.43,-222.37 376.76,-223.84 371.81,-225.25 366.57,-226.62 361.07,-227.94 355.32,-229.2 349.33,-230.4 343.12,-231.55 336.7,-232.63 330.1,-233.65 323.33,-234.6 316.41,-235.48 309.37,-236.27 302.22,-236.99 294.98,-237.62 287.68,-238.16 280.34,-238.61 272.98,-238.96 265.63,-239.2 258.31,-239.34 251.05,-239.37 243.86,-239.28 236.77,-239.08 229.8,-238.75 222.97,-238.3 216.32,-237.72 209.85,-237.01 203.6,-236.17 197.57,-235.2 191.8,-234.1 186.29,-232.87 181.07,-231.5 176.15,-230.01 171.54,-228.38 167.27,-226.64 163.34,-224.77 159.77,-222.78 156.57,-220.69 153.74,-218.49 151.29,-216.19 149.23,-213.79 147.56,-211.31 146.29,-208.76 145.41,-206.14 144.93,-203.46 144.85,-200.73 145.16,-197.97 145.87,-195.18 146.96,-192.37 148.42,-189.56 150.27,-186.75 152.47,-183.96 155.03,-181.2 157.93,-178.49"/>
<text text-anchor="middle" x="280.9" y="-191.6" font-family="sans-serif" font-size="16.00">GestionInventario</text>
</g>
<!-- CatalogoProductos&#45;&gt;GestionInventario -->
<g id="edge1" class="edge">
<title>CatalogoProductos&#45;&gt;GestionInventario</title>
<path fill="none" stroke="black" stroke-width="2" d="M476.41,-300.62C435.53,-278.83 385.52,-252.17 346.32,-231.27"/>
<text text-anchor="middle" x="466.9" y="-265.57" font-family="sans-serif" font-size="12.00">Shared Kernel</text>
</g>
<!-- GestionVentas -->
<g id="node3" class="node">
<title>GestionVentas</title>
<polygon fill="none" stroke="black" stroke-width="2" points="652.13,-215.69 648.8,-218.24 645.21,-220.72 641.38,-223.11 637.32,-225.42 633.04,-227.62 628.57,-229.71 623.91,-231.69 619.09,-233.53 614.11,-235.24 608.99,-236.82 603.75,-238.24 598.41,-239.51 592.97,-240.63 587.46,-241.59 581.88,-242.39 576.27,-243.02 570.62,-243.49 564.95,-243.79 559.28,-243.93 553.62,-243.91 547.99,-243.73 542.39,-243.39 536.84,-242.89 531.35,-242.25 525.94,-241.46 520.61,-240.54 515.37,-239.48 510.24,-238.29 505.23,-236.98 500.34,-235.57 495.59,-234.05 490.99,-232.43 486.53,-230.72 482.24,-228.93 478.12,-227.07 474.18,-225.14 470.43,-223.16 466.87,-221.13 463.51,-219.06 460.37,-216.95 457.43,-214.82 454.73,-212.67 452.25,-210.51 450.01,-208.34 448.01,-206.17 446.26,-204 444.76,-201.85 443.52,-199.71 442.55,-197.59 441.84,-195.5 441.41,-193.43 441.26,-191.39 441.38,-189.39 441.79,-187.42 442.48,-185.49 443.46,-183.6 444.73,-181.75 446.29,-179.94 448.13,-178.18 450.26,-176.46 452.67,-174.79 455.37,-173.17 458.34,-171.59 461.59,-170.06 465.1,-168.59 468.87,-167.17 472.9,-165.79 477.18,-164.48 481.68,-163.21 486.42,-162.01 491.37,-160.86 496.52,-159.77 501.86,-158.75 507.37,-157.79 513.04,-156.9 518.85,-156.08 524.79,-155.33 530.84,-154.66 536.98,-154.07 543.19,-153.57 549.46,-153.15 555.75,-152.82 562.06,-152.59 568.36,-152.45 574.64,-152.42 580.86,-152.49 587.02,-152.67 593.08,-152.96 599.03,-153.37 604.85,-153.89 610.52,-154.54 616.02,-155.3 621.34,-156.19 626.44,-157.2 631.32,-158.33 635.96,-159.59 640.34,-160.97 644.45,-162.47 648.28,-164.1 651.81,-165.84 655.03,-167.69 657.93,-169.65 660.51,-171.72 662.75,-173.89 664.65,-176.16 666.21,-178.51 667.41,-180.94 668.27,-183.44 668.77,-186.01 668.93,-188.63 668.73,-191.3 668.18,-194.01 667.3,-196.74 666.08,-199.49 664.53,-202.24 662.65,-204.99 660.47,-207.72 657.98,-210.42 655.19,-213.08 652.13,-215.69"/>
<text text-anchor="middle" x="551.9" y="-191.6" font-family="sans-serif" font-size="16.00">GestionVentas</text>
</g>
<!-- CatalogoProductos&#45;&gt;GestionVentas -->
<g id="edge2" class="edge">
<title>CatalogoProductos&#45;&gt;GestionVentas</title>
<path fill="none" stroke="black" stroke-width="2" d="M551.9,-298.69C551.9,-281.53 551.9,-261.62 551.9,-243.95"/>
<text text-anchor="middle" x="593.9" y="-265.57" font-family="sans-serif" font-size="12.00">Shared Kernel</text>
</g>
<!-- ProcesamientoPedidos -->
<g id="node7" class="node">
<title>ProcesamientoPedidos</title>
<polygon fill="none" stroke="black" stroke-width="2" points="775.55,-180.7 778.91,-177.99 782.66,-175.34 786.8,-172.76 791.3,-170.26 796.15,-167.85 801.34,-165.53 806.84,-163.33 812.64,-161.24 818.73,-159.27 825.08,-157.44 831.68,-155.75 838.5,-154.2 845.53,-152.8 852.74,-151.55 860.12,-150.46 867.65,-149.53 875.31,-148.76 883.07,-148.15 890.92,-147.71 898.84,-147.43 906.8,-147.31 914.8,-147.34 922.8,-147.53 930.79,-147.88 938.76,-148.37 946.68,-149 954.53,-149.77 962.3,-150.66 969.97,-151.69 977.51,-152.83 984.93,-154.08 992.18,-155.44 999.27,-156.89 1006.18,-158.43 1012.88,-160.06 1019.36,-161.75 1025.61,-163.51 1031.62,-165.33 1037.36,-167.21 1042.83,-169.12 1048.01,-171.08 1052.88,-173.06 1057.44,-175.07 1061.68,-177.1 1065.57,-179.15 1069.12,-181.2 1072.31,-183.25 1075.12,-185.3 1077.56,-187.35 1079.61,-189.39 1081.26,-191.41 1082.51,-193.42 1083.36,-195.42 1083.79,-197.39 1083.8,-199.34 1083.39,-201.27 1082.56,-203.17 1081.31,-205.04 1079.63,-206.89 1077.53,-208.7 1075,-210.49 1072.06,-212.24 1068.71,-213.96 1064.95,-215.65 1060.79,-217.3 1056.24,-218.91 1051.31,-220.49 1046.01,-222.03 1040.35,-223.52 1034.35,-224.97 1028.02,-226.37 1021.37,-227.73 1014.44,-229.03 1007.22,-230.28 999.75,-231.46 992.04,-232.59 984.12,-233.65 976.01,-234.64 967.74,-235.55 959.31,-236.39 950.77,-237.14 942.14,-237.8 933.45,-238.37 924.71,-238.85 915.96,-239.22 907.23,-239.48 898.54,-239.63 889.92,-239.67 881.4,-239.59 873,-239.38 864.75,-239.05 856.68,-238.59 848.8,-238 841.16,-237.27 833.77,-236.41 826.64,-235.41 819.82,-234.28 813.31,-233.01 807.14,-231.61 801.33,-230.08 795.88,-228.41 790.83,-226.62 786.18,-224.71 781.94,-222.68 778.14,-220.54 774.77,-218.3 771.85,-215.95 769.38,-213.52 767.37,-211 765.83,-208.41 764.75,-205.75 764.13,-203.04 763.98,-200.29 764.29,-197.5 765.06,-194.69 766.28,-191.87 767.95,-189.04 770.06,-186.23 772.59,-183.45 775.55,-180.7"/>
<text text-anchor="middle" x="925.9" y="-191.6" font-family="sans-serif" font-size="16.00">ProcesamientoPedidos</text>
</g>
<!-- CatalogoProductos&#45;&gt;ProcesamientoPedidos -->
<g id="edge3" class="edge">
<title>CatalogoProductos&#45;&gt;ProcesamientoPedidos</title>
<path fill="none" stroke="black" stroke-width="2" d="M634.9,-308.8C691.07,-287.1 765.59,-258.32 825.16,-235.31"/>
<text text-anchor="middle" x="792.9" y="-265.57" font-family="sans-serif" font-size="12.00">Shared Kernel</text>
</g>
<!-- ServiciosEntrega -->
<g id="node4" class="node">
<title>ServiciosEntrega</title>
<polygon fill="none" stroke="black" stroke-width="2" points="235.44,-76.15 230.34,-78.41 224.99,-80.58 219.42,-82.65 213.65,-84.62 207.7,-86.47 201.59,-88.19 195.34,-89.79 188.98,-91.25 182.52,-92.56 175.99,-93.73 169.41,-94.74 162.79,-95.6 156.15,-96.3 149.53,-96.83 142.92,-97.21 136.36,-97.41 129.85,-97.46 123.41,-97.34 117.07,-97.06 110.82,-96.62 104.69,-96.02 98.69,-95.27 92.83,-94.38 87.12,-93.34 81.57,-92.17 76.2,-90.86 71,-89.43 65.99,-87.89 61.17,-86.24 56.55,-84.48 52.15,-82.64 47.95,-80.71 43.98,-78.7 40.23,-76.62 36.71,-74.49 33.43,-72.31 30.38,-70.08 27.57,-67.82 25.01,-65.54 22.7,-63.24 20.65,-60.93 18.85,-58.61 17.31,-56.31 16.04,-54.01 15.04,-51.73 14.31,-49.47 13.85,-47.25 13.67,-45.05 13.77,-42.9 14.16,-40.79 14.83,-38.72 15.79,-36.71 17.05,-34.75 18.59,-32.84 20.43,-31 22.57,-29.21 25,-27.49 27.72,-25.83 30.74,-24.23 34.05,-22.7 37.65,-21.24 41.53,-19.84 45.69,-18.51 50.13,-17.25 54.84,-16.06 59.8,-14.94 65.02,-13.89 70.48,-12.91 76.17,-12 82.07,-11.17 88.18,-10.4 94.48,-9.72 100.95,-9.1 107.58,-8.57 114.35,-8.11 121.23,-7.74 128.22,-7.44 135.28,-7.23 142.39,-7.1 149.54,-7.06 156.7,-7.12 163.85,-7.26 170.95,-7.5 177.99,-7.83 184.95,-8.26 191.79,-8.79 198.49,-9.42 205.04,-10.15 211.39,-10.99 217.54,-11.94 223.45,-12.99 229.11,-14.14 234.49,-15.41 239.57,-16.78 244.33,-18.25 248.76,-19.83 252.84,-21.51 256.55,-23.29 259.88,-25.17 262.82,-27.14 265.35,-29.2 267.46,-31.34 269.16,-33.57 270.43,-35.86 271.28,-38.23 271.69,-40.65 271.67,-43.13 271.22,-45.66 270.35,-48.22 269.06,-50.81 267.36,-53.41 265.25,-56.03 262.75,-58.65 259.87,-61.26 256.63,-63.85 253.03,-66.41 249.09,-68.93 244.84,-71.4 240.28,-73.81 235.44,-76.15"/>
<text text-anchor="middle" x="135.9" y="-45.02" font-family="sans-serif" font-size="16.00">ServiciosEntrega</text>
</g>
<!-- GestionVentas&#45;&gt;ServiciosEntrega -->
<g id="edge4" class="edge">
<title>GestionVentas&#45;&gt;ServiciosEntrega</title>
<path fill="none" stroke="black" stroke-width="2" d="M475.45,-164.86C459.14,-158.72 441.98,-152.37 425.9,-146.64 388.83,-133.43 297.44,-103.05 227.08,-79.82"/>
<text text-anchor="middle" x="413.9" y="-119.04" font-family="sans-serif" font-size="12.00">Shared Kernel</text>
</g>
<!-- ServiciosFotocopias -->
<g id="node5" class="node">
<title>ServiciosFotocopias</title>
<polygon fill="none" stroke="black" stroke-width="2" points="322.36,-71.76 317.33,-69.32 312.66,-66.84 308.39,-64.31 304.53,-61.76 301.09,-59.19 298.11,-56.61 295.58,-54.03 293.52,-51.46 291.94,-48.91 290.85,-46.38 290.26,-43.89 290.17,-41.44 290.58,-39.05 291.49,-36.71 292.9,-34.43 294.8,-32.23 297.19,-30.1 300.06,-28.05 303.4,-26.08 307.19,-24.2 311.42,-22.42 316.07,-20.72 321.12,-19.13 326.56,-17.63 332.36,-16.23 338.5,-14.93 344.95,-13.73 351.69,-12.64 358.7,-11.64 365.94,-10.74 373.38,-9.95 381,-9.25 388.78,-8.65 396.68,-8.15 404.67,-7.74 412.72,-7.42 420.82,-7.2 428.92,-7.06 437.01,-7.02 445.05,-7.06 453.03,-7.19 460.91,-7.4 468.68,-7.7 476.3,-8.07 483.77,-8.53 491.06,-9.07 498.16,-9.69 505.04,-10.39 511.69,-11.16 518.09,-12.02 524.24,-12.95 530.12,-13.95 535.73,-15.03 541.04,-16.19 546.06,-17.43 550.78,-18.74 555.19,-20.12 559.29,-21.58 563.08,-23.11 566.54,-24.71 569.69,-26.39 572.52,-28.13 575.03,-29.94 577.22,-31.82 579.09,-33.76 580.65,-35.76 581.88,-37.81 582.81,-39.92 583.42,-42.09 583.72,-44.29 583.72,-46.54 583.41,-48.83 582.8,-51.14 581.89,-53.48 580.68,-55.84 579.18,-58.2 577.38,-60.58 575.3,-62.94 572.93,-65.3 570.27,-67.64 567.33,-69.95 564.12,-72.22 560.62,-74.45 556.86,-76.62 552.82,-78.73 548.52,-80.78 543.95,-82.74 539.13,-84.61 534.06,-86.39 528.74,-88.06 523.18,-89.62 517.4,-91.06 511.38,-92.37 505.16,-93.55 498.73,-94.59 492.11,-95.49 485.31,-96.24 478.34,-96.83 471.22,-97.26 463.96,-97.54 456.58,-97.65 449.1,-97.6 441.53,-97.39 433.9,-97.01 426.23,-96.47 418.54,-95.77 410.85,-94.91 403.19,-93.89 395.57,-92.73 388.03,-91.42 380.59,-89.96 373.27,-88.38 366.11,-86.66 359.12,-84.83 352.34,-82.88 345.79,-80.83 339.49,-78.68 333.47,-76.45 327.75,-74.14 322.36,-71.76"/>
<text text-anchor="middle" x="445.9" y="-45.02" font-family="sans-serif" font-size="16.00">ServiciosFotocopias</text>
</g>
<!-- GestionVentas&#45;&gt;ServiciosFotocopias -->
<g id="edge5" class="edge">
<title>GestionVentas&#45;&gt;ServiciosFotocopias</title>
<path fill="none" stroke="black" stroke-width="2" d="M523.21,-155.28C509.97,-137.21 494.14,-115.62 480.26,-96.69"/>
<text text-anchor="middle" x="544.9" y="-119.04" font-family="sans-serif" font-size="12.00">Shared Kernel</text>
</g>
<!-- Facturacion -->
<g id="node6" class="node">
<title>Facturacion</title>
<polygon fill="none" stroke="black" stroke-width="2" points="705.13,-91.84 698.84,-91.3 692.64,-90.65 686.57,-89.88 680.64,-89.01 674.87,-88.02 669.3,-86.93 663.94,-85.74 658.81,-84.45 653.93,-83.07 649.33,-81.59 645.01,-80.03 640.99,-78.39 637.29,-76.67 633.9,-74.88 630.86,-73.02 628.15,-71.1 625.8,-69.12 623.79,-67.09 622.13,-65.01 620.83,-62.9 619.88,-60.74 619.28,-58.56 619.02,-56.35 619.1,-54.12 619.5,-51.89 620.23,-49.64 621.26,-47.39 622.59,-45.15 624.2,-42.92 626.09,-40.7 628.23,-38.51 630.62,-36.34 633.24,-34.21 636.07,-32.11 639.09,-30.06 642.3,-28.05 645.67,-26.1 649.2,-24.21 652.86,-22.39 656.64,-20.63 660.53,-18.94 664.52,-17.34 668.59,-15.82 672.72,-14.38 676.92,-13.03 681.16,-11.78 685.44,-10.62 689.75,-9.57 694.08,-8.62 698.43,-7.78 702.78,-7.04 707.13,-6.42 711.48,-5.91 715.82,-5.52 720.14,-5.24 724.45,-5.08 728.73,-5.05 733,-5.13 737.23,-5.32 741.44,-5.64 745.61,-6.08 749.75,-6.64 753.85,-7.31 757.91,-8.1 761.93,-9 765.9,-10.02 769.81,-11.14 773.67,-12.37 777.47,-13.7 781.2,-15.14 784.85,-16.67 788.42,-18.29 791.9,-19.99 795.28,-21.79 798.55,-23.66 801.7,-25.6 804.73,-27.61 807.62,-29.68 810.35,-31.81 812.92,-33.99 815.32,-36.21 817.53,-38.47 819.53,-40.76 821.33,-43.07 822.9,-45.4 824.23,-47.74 825.31,-50.09 826.12,-52.44 826.67,-54.77 826.93,-57.09 826.9,-59.38 826.57,-61.64 825.92,-63.87 824.97,-66.06 823.69,-68.19 822.09,-70.27 820.16,-72.29 817.9,-74.24 815.32,-76.12 812.42,-77.92 809.19,-79.63 805.66,-81.26 801.82,-82.79 797.68,-84.23 793.26,-85.57 788.56,-86.8 783.62,-87.92 778.43,-88.93 773.02,-89.83 767.4,-90.62 761.6,-91.28 755.65,-91.83 749.55,-92.26 743.34,-92.56 737.05,-92.74 730.69,-92.8 724.29,-92.74 717.88,-92.56 711.48,-92.26 705.13,-91.84"/>
<text text-anchor="middle" x="724.9" y="-45.02" font-family="sans-serif" font-size="16.00">Facturacion</text>
</g>
<!-- GestionVentas&#45;&gt;Facturacion -->
<g id="edge6" class="edge">
<title>GestionVentas&#45;&gt;Facturacion</title>
<path fill="none" stroke="black" stroke-width="2" d="M601.01,-153.36C625.28,-133.07 654.42,-108.72 678.34,-88.73"/>
<text text-anchor="middle" x="685.9" y="-119.04" font-family="sans-serif" font-size="12.00">Shared Kernel</text>
</g>
<!-- GestionClientes -->
<g id="node8" class="node">
<title>GestionClientes</title>
<polygon fill="none" stroke="black" stroke-width="2" points="875.47,-71.76 871.25,-69.32 867.35,-66.84 863.77,-64.31 860.54,-61.76 857.66,-59.19 855.16,-56.61 853.04,-54.03 851.32,-51.46 850,-48.91 849.09,-46.38 848.59,-43.89 848.51,-41.44 848.86,-39.05 849.62,-36.71 850.8,-34.43 852.39,-32.23 854.39,-30.1 856.8,-28.05 859.59,-26.08 862.76,-24.2 866.3,-22.42 870.2,-20.72 874.43,-19.13 878.98,-17.63 883.84,-16.23 888.98,-14.93 894.38,-13.73 900.03,-12.64 905.89,-11.64 911.95,-10.74 918.18,-9.95 924.57,-9.25 931.08,-8.65 937.69,-8.15 944.38,-7.74 951.12,-7.42 957.9,-7.2 964.68,-7.06 971.46,-7.02 978.19,-7.06 984.87,-7.19 991.47,-7.4 997.97,-7.7 1004.35,-8.07 1010.61,-8.53 1016.71,-9.07 1022.65,-9.69 1028.41,-10.39 1033.98,-11.16 1039.34,-12.02 1044.49,-12.95 1049.42,-13.95 1054.11,-15.03 1058.56,-16.19 1062.76,-17.43 1066.71,-18.74 1070.4,-20.12 1073.84,-21.58 1077,-23.11 1079.91,-24.71 1082.54,-26.39 1084.91,-28.13 1087.01,-29.94 1088.85,-31.82 1090.41,-33.76 1091.71,-35.76 1092.75,-37.81 1093.52,-39.92 1094.04,-42.09 1094.29,-44.29 1094.29,-46.54 1094.03,-48.83 1093.52,-51.14 1092.75,-53.48 1091.74,-55.84 1090.49,-58.2 1088.98,-60.58 1087.24,-62.94 1085.25,-65.3 1083.03,-67.64 1080.57,-69.95 1077.88,-72.22 1074.95,-74.45 1071.8,-76.62 1068.42,-78.73 1064.82,-80.78 1060.99,-82.74 1056.96,-84.61 1052.71,-86.39 1048.26,-88.06 1043.61,-89.62 1038.76,-91.06 1033.73,-92.37 1028.51,-93.55 1023.13,-94.59 1017.59,-95.49 1011.89,-96.24 1006.06,-96.83 1000.09,-97.26 994.02,-97.54 987.84,-97.65 981.58,-97.6 975.24,-97.39 968.86,-97.01 962.43,-96.47 955.99,-95.77 949.56,-94.91 943.14,-93.89 936.76,-92.73 930.45,-91.42 924.22,-89.96 918.09,-88.38 912.1,-86.66 906.25,-84.83 900.57,-82.88 895.08,-80.83 889.8,-78.68 884.76,-76.45 879.98,-74.14 875.47,-71.76"/>
<text text-anchor="middle" x="978.9" y="-45.02" font-family="sans-serif" font-size="16.00">GestionClientes</text>
</g>
<!-- ProcesamientoPedidos&#45;&gt;GestionClientes -->
<g id="edge7" class="edge">
<title>ProcesamientoPedidos&#45;&gt;GestionClientes</title>
<path fill="none" stroke="black" stroke-width="2" d="M942.67,-148.66C948.73,-132.11 955.59,-113.41 961.69,-96.76"/>
<text text-anchor="middle" x="996.9" y="-119.04" font-family="sans-serif" font-size="12.00">Shared Kernel</text>
</g>
</g>
</svg>
