<svg width="2000px" height="2043px"
 viewBox="0.00 0.00 375.88 383.68" xmlns="http://www.w3.org/2000/svg" xmlns:xlink="http://www.w3.org/1999/xlink">
<g id="graph0" class="graph" transform="scale(1.0 1.0) rotate(0) translate(4 379.68)">
<title>ContextMapGraph</title>
<polygon fill="white" stroke="transparent" points="-4,4 -4,-379.68 371.88,-379.68 371.88,4 -4,4"/>
<!-- OrderProcessingContext -->
<g id="node1" class="node">
<title>OrderProcessingContext</title>
<polygon fill="none" stroke="black" stroke-width="2" points="144.01,-374.38 133.22,-373.74 122.61,-372.99 112.22,-372.12 102.09,-371.15 92.27,-370.08 82.79,-368.9 73.69,-367.62 65.01,-366.25 56.77,-364.78 49.01,-363.23 41.76,-361.6 35.04,-359.9 28.87,-358.12 23.28,-356.27 18.26,-354.36 13.85,-352.39 10.04,-350.37 6.85,-348.31 4.27,-346.2 2.31,-344.06 0.96,-341.89 0.21,-339.69 0.06,-337.47 0.49,-335.25 1.49,-333.01 3.04,-330.77 5.13,-328.54 7.73,-326.31 10.82,-324.1 14.38,-321.91 18.38,-319.75 22.79,-317.61 27.59,-315.51 32.76,-313.46 38.26,-311.45 44.07,-309.49 50.16,-307.59 56.5,-305.75 63.07,-303.98 69.84,-302.28 76.79,-300.66 83.89,-299.11 91.12,-297.65 98.46,-296.27 105.89,-294.99 113.39,-293.8 120.94,-292.71 128.52,-291.72 136.13,-290.84 143.75,-290.06 151.36,-289.4 158.96,-288.84 166.54,-288.4 174.08,-288.07 181.59,-287.86 189.05,-287.77 196.46,-287.8 203.81,-287.95 211.1,-288.22 218.32,-288.6 225.47,-289.11 232.55,-289.73 239.54,-290.47 246.45,-291.32 253.26,-292.29 259.98,-293.37 266.59,-294.55 273.09,-295.84 279.47,-297.24 285.71,-298.73 291.82,-300.32 297.76,-302 303.54,-303.77 309.14,-305.61 314.54,-307.54 319.73,-309.53 324.68,-311.6 329.39,-313.72 333.83,-315.89 337.97,-318.11 341.81,-320.38 345.32,-322.67 348.48,-325 351.27,-327.34 353.67,-329.7 355.65,-332.07 357.2,-334.44 358.29,-336.8 358.92,-339.15 359.06,-341.47 358.7,-343.77 357.82,-346.03 356.41,-348.25 354.46,-350.43 351.97,-352.55 348.92,-354.6 345.32,-356.59 341.16,-358.51 336.45,-360.35 331.19,-362.11 325.4,-363.78 319.07,-365.35 312.23,-366.83 304.89,-368.2 297.07,-369.47 288.8,-370.63 280.1,-371.68 271,-372.61 261.54,-373.43 251.73,-374.13 241.63,-374.7 231.27,-375.16 220.69,-375.49 209.92,-375.7 199.02,-375.78 188.02,-375.74 176.98,-375.58 165.93,-375.3 154.93,-374.9 144.01,-374.38"/>
<text text-anchor="middle" x="183.94" y="-327.79" font-family="sans-serif" font-size="16.00">OrderProcessingContext</text>
</g>
<!-- ShoppingCartContext -->
<g id="node2" class="node">
<title>ShoppingCartContext</title>
<polygon fill="none" stroke="black" stroke-width="2" points="124.85,-151.5 134.18,-150.36 143.61,-149.35 153.12,-148.45 162.65,-147.69 172.17,-147.06 181.66,-146.56 191.06,-146.21 200.36,-145.99 209.5,-145.91 218.47,-145.98 227.24,-146.19 235.77,-146.55 244.04,-147.04 252.03,-147.68 259.71,-148.47 267.07,-149.38 274.08,-150.44 280.73,-151.62 287.02,-152.94 292.92,-154.37 298.43,-155.93 303.54,-157.59 308.24,-159.36 312.54,-161.24 316.44,-163.2 319.93,-165.26 323.01,-167.39 325.7,-169.59 327.99,-171.85 329.89,-174.18 331.41,-176.54 332.56,-178.95 333.35,-181.38 333.77,-183.84 333.85,-186.31 333.6,-188.79 333.02,-191.26 332.13,-193.72 330.92,-196.17 329.43,-198.58 327.64,-200.97 325.58,-203.31 323.24,-205.6 320.65,-207.84 317.79,-210.02 314.69,-212.13 311.35,-214.17 307.77,-216.13 303.95,-218.01 299.91,-219.81 295.64,-221.52 291.15,-223.13 286.44,-224.65 281.51,-226.07 276.37,-227.39 271.02,-228.6 265.46,-229.72 259.7,-230.72 253.74,-231.62 247.58,-232.42 241.22,-233.1 234.68,-233.68 227.96,-234.16 221.06,-234.52 213.99,-234.78 206.77,-234.94 199.4,-234.99 191.9,-234.93 184.27,-234.78 176.53,-234.53 168.71,-234.17 160.81,-233.72 152.86,-233.18 144.87,-232.54 136.87,-231.8 128.88,-230.98 120.93,-230.07 113.04,-229.07 105.23,-227.99 97.55,-226.82 90,-225.57 82.63,-224.25 75.46,-222.85 68.53,-221.37 61.86,-219.83 55.47,-218.21 49.41,-216.53 43.7,-214.78 38.37,-212.98 33.44,-211.11 28.95,-209.19 24.91,-207.23 21.35,-205.21 18.28,-203.15 15.74,-201.05 13.74,-198.91 12.28,-196.75 11.39,-194.56 11.07,-192.34 11.33,-190.11 12.18,-187.87 13.61,-185.63 15.62,-183.38 18.22,-181.14 21.39,-178.92 25.12,-176.71 29.41,-174.53 34.23,-172.38 39.56,-170.27 45.4,-168.2 51.7,-166.19 58.45,-164.23 65.62,-162.34 73.18,-160.52 81.1,-158.79 89.34,-157.13 97.87,-155.57 106.66,-154.11 115.66,-152.75 124.85,-151.5"/>
<text text-anchor="middle" x="183.94" y="-188.5" font-family="sans-serif" font-size="16.00">ShoppingCartContext</text>
</g>
<!-- OrderProcessingContext&#45;&gt;ShoppingCartContext -->
<g id="edge1" class="edge">
<title>OrderProcessingContext&#45;&gt;ShoppingCartContext</title>
<path fill="none" stroke="black" stroke-width="2" d="M183.94,-287.53C183.94,-270.7 183.94,-251.48 183.94,-234.8"/>
<text text-anchor="middle" x="259.44" y="-259.89" font-family="sans-serif" font-size="12.00"> &#160;&#160;&#160;&#160;&#160;&#160;&#160;&#160;&#160;&#160;&#160;&#160;&#160;&#160;&#160;&#160;&#160;&#160;&#160;&#160;&#160;&#160;&#160;&#160;&#160;&#160;&#160;&#160;&#160;&#160;&#160;&#160;&#160;&#160;&#160;&#160;&#160;&#160;&#160;</text>
<polygon fill="white" stroke="transparent" points="176.94,-225.8 176.94,-242.8 190.94,-242.8 190.94,-225.8 176.94,-225.8"/>
<text text-anchor="start" x="178.94" y="-231.2" font-family="sans-serif" font-size="12.00">D</text>
<polygon fill="white" stroke="transparent" points="148.94,-277.53 148.94,-296.53 164.94,-296.53 164.94,-277.53 148.94,-277.53"/>
<polyline fill="none" stroke="black" points="164.94,-277.53 164.94,-296.53 "/>
<text text-anchor="start" x="151.94" y="-283.93" font-family="sans-serif" font-size="12.00">U</text>
<polygon fill="white" stroke="transparent" points="164.94,-277.53 164.94,-296.53 219.94,-296.53 219.94,-277.53 164.94,-277.53"/>
<polygon fill="none" stroke="black" points="164.94,-277.53 164.94,-296.53 219.94,-296.53 219.94,-277.53 164.94,-277.53"/>
<text text-anchor="start" x="167.94" y="-283.93" font-family="sans-serif" font-size="12.00">OHS, PL</text>
</g>
<!-- ProductCatalogContext -->
<g id="node3" class="node">
<title>ProductCatalogContext</title>
<polygon fill="none" stroke="black" stroke-width="2" points="47.97,-72.74 41.99,-70.36 36.43,-67.93 31.3,-65.46 26.62,-62.96 22.43,-60.43 18.74,-57.89 15.56,-55.34 12.92,-52.8 10.81,-50.27 9.26,-47.77 8.28,-45.29 7.86,-42.85 8.01,-40.46 8.73,-38.12 10.02,-35.83 11.88,-33.62 14.29,-31.47 17.26,-29.39 20.76,-27.4 24.78,-25.48 29.3,-23.66 34.32,-21.92 39.8,-20.27 45.72,-18.72 52.06,-17.27 58.8,-15.91 65.9,-14.64 73.34,-13.48 81.09,-12.41 89.11,-11.44 97.38,-10.57 105.87,-9.79 114.53,-9.11 123.35,-8.52 132.28,-8.03 141.3,-7.63 150.38,-7.32 159.47,-7.1 168.56,-6.97 177.61,-6.93 186.6,-6.97 195.49,-7.1 204.26,-7.31 212.89,-7.61 221.35,-7.98 229.62,-8.44 237.67,-8.99 245.5,-9.61 253.08,-10.31 260.39,-11.09 267.43,-11.95 274.17,-12.9 280.61,-13.92 286.74,-15.01 292.54,-16.19 298.02,-17.45 303.16,-18.78 307.96,-20.19 312.41,-21.68 316.52,-23.24 320.27,-24.87 323.68,-26.58 326.74,-28.36 329.44,-30.21 331.79,-32.12 333.8,-34.1 335.46,-36.14 336.77,-38.23 337.73,-40.38 338.36,-42.58 338.64,-44.82 338.59,-47.1 338.2,-49.42 337.48,-51.76 336.43,-54.12 335.04,-56.5 333.33,-58.88 331.29,-61.26 328.93,-63.64 326.24,-66 323.24,-68.33 319.91,-70.63 316.27,-72.89 312.31,-75.1 308.05,-77.25 303.47,-79.33 298.59,-81.33 293.41,-83.25 287.93,-85.08 282.17,-86.8 276.12,-88.41 269.79,-89.91 263.2,-91.28 256.35,-92.53 249.26,-93.63 241.93,-94.6 234.37,-95.41 226.61,-96.08 218.66,-96.59 210.53,-96.94 202.25,-97.13 193.83,-97.16 185.29,-97.03 176.67,-96.73 167.97,-96.27 159.23,-95.66 150.47,-94.88 141.72,-93.95 133,-92.87 124.35,-91.64 115.8,-90.27 107.37,-88.77 99.09,-87.13 91,-85.38 83.12,-83.51 75.48,-81.53 68.12,-79.46 61.06,-77.3 54.34,-75.05 47.97,-72.74"/>
<text text-anchor="middle" x="183.94" y="-44.75" font-family="sans-serif" font-size="16.00">ProductCatalogContext</text>
</g>
<!-- ShoppingCartContext&#45;&gt;ProductCatalogContext -->
<g id="edge2" class="edge">
<title>ShoppingCartContext&#45;&gt;ProductCatalogContext</title>
<path fill="none" stroke="black" stroke-width="2" d="M183.94,-146.45C183.94,-130.72 183.94,-112.99 183.94,-97.05"/>
<text text-anchor="middle" x="225.94" y="-118.51" font-family="sans-serif" font-size="12.00">Shared Kernel</text>
</g>
</g>
</svg>
